<svg fill="none" height="44" width="44" xmlns="http://www.w3.org/2000/svg"><g stroke="#000" stroke-linecap="round" stroke-miterlimit="10"><path d="m7.07093 21.7906c-.22771-.6103-1.08392-1.3207-1.32075-1.4847-.5283-.3643-1.08393-.7196-1.72154-.8471-.22771-.0455-.47365-.0547-.69225.0091-.33702.0911-.61939.3461-.79246.6376-.33702.5465-.39167 1.2206-.25504 1.84.12752.6193.28237.9382.59206 1.4938m7.70595.0369c.3552-.5101.6011-.8744.7833-1.4665.1822-.583.2004-1.2388-.082-1.7853-.1457-.2915-.3825-.5556-.7013-.674-.2095-.0729-.4372-.082-.66496-.0638-.61939.0638-1.19323.3552-1.73064.6649-.24594.1367-.49187.2824-.66493.501-.13663.1822-.21861.3917-.29148.6103-.20039.5829-.29148 1.1841-.32791 1.7944-.01822.3006-.00911.6012 0 .9017.00911.2824 0 .5921.09108.8745 0 .0091.00911.0182.01822.0273h.02733c.30969-.1184.54652-.4099.81978-.583.60117-.4098 1.30253-.7742 2.04944-.8471.23687-.0364.46457-.0273.67407.0456zm0 0c.3188.1184.5556.3825.7013.674.2733.5465.2642 1.3663.082 1.9493-.1822.5829-.2732.7469-.6285 1.257m-3.9167 1.6572c.09109-.4645.02733-1.7762 0-2.2407-.02732-.3826-.1093-.9291-.20039-1.3025-.05465-.2278-.1093-.4555-.23682-.6559-.15485-.2368-.39168-.419-.63761-.5829-.5283-.3644-1.08393-.7196-1.72154-.8471-.22771-.0456-.47365-.0547-.69225.0091-.33702.0911-.50098.3279-.68315.6194-.33702.5465-.39167 1.3845-.25504 2.0039s.32791.7833.64671 1.339m4.18998 8.1342s.6285-1.257-.35524-2.3318c-.55562-.6012-2.31359-1.7944-3.29733-1.2388-.68315.3825-.79245 1.4209-.6376 2.0494.12752.5374.39167 1.0293.71047 1.5121"/><path d="m7.07093 29.852c-.22771-.6103-1.08393-1.3208-1.32075-1.4847-.5283-.3644-.81067-.6832-1.44828-.8016-.22771-.0455-.47365-.0546-.69226.0091-.33702.0911-.47365.1549-.65582.4464-.33702.5465-.39167 1.2205-.25504 1.8399s.28237.9382.60117 1.4938m7.29605.1823c.3552-.5101.6012-.8744.7833-1.4665.1822-.5829.1913-1.2388-.0911-1.7853-.1457-.2914-.3825-.5556-.7013-.674-.2095-.0729-.4372-.082-.66495-.0638-.61939.0638-1.19324.3553-1.73065.665-.24593.1366-.49186.2823-.66493.5009-.13663.1822-.21861.3917-.29148.6103-.20039.583-.29147 1.1841-.3188 1.7944-.01822.3006-.00911.6012 0 .9018.00911.2823 0 .592.09109.8744 0 .0091.00911.0182.01821.0273h.02733c.3097-.1184.54652-.4099.81978-.5829.60117-.4099 1.30254-.7743 2.04945-.8471.23685-.0456.46455-.0365.67405.0455zm0 0c.3188.1184.5556.3826.7014.6741.2732.5465.2641 1.2023.0819 1.7853-.1821.5829-.4281.9837-.7833 1.4938m-8.18869-27.4904s-.39168.81067-.26415 1.43006c.12752.61934.28236.93814.59206 1.49384m4.2082 2.6323c-.22772-.6103-1.08393-1.3208-1.32076-1.4848-.5283-.3643-1.08393-.7195-1.73064-.8379-.22772-.0456-.46454-.0547-.69226 0-.33702.091-.61939.3461-.79245.6376-.33702.5465-.39167 1.5666-.25505 2.186.13663.6194.28237.9382.59207 1.4939m7.72417.0364c.3552-.51.6011-.8744.7833-1.4664.1822-.583.2004-1.5758-.082-2.1315-.1457-.2914-.3825-.5556-.7013-.674-.2095-.0729-.4464-.082-.66497-.0638-.61938.0638-1.19323.3553-1.73064.665-.24593.1366-.49187.2823-.66493.5009-.13663.1822-.21861.3917-.29148.6103-.20039.5739-.29147 1.5212-.3188 2.1314-.01822.3006-.00911.6012 0 .9018.00911.2824 0 .5921.09109.8744 0 .0091.0091.0182.01821.0274h.02733c.30969-.1185.54652-.4099.81978-.583.60117-.4099 1.30253-.7742 2.04944-.8471.21857-.0364.45547-.0273.66497.0546zm0 0c.3188.1185.6649.4373.8106.7287.2733.5466.3826 1.2024.2004 1.7853-.1821.583-.3734.6923-.7287 1.2024m-3.92579 1.713c.09108-.4645.02732-1.8308 0-2.2954-.02733-.3825-.23683-.7651-.32792-1.1386-.05465-.2277-.1093-.4554-.23682-.6558-.15485-.2368-.39167-.419-.63761-.5829-.5283-.3644-1.08393-.7196-1.73064-.8471-.22772-.0365-.46454-.0547-.69226.0091-.33702.0911-.77423.2823-.95641.5738-.33702.5465-.26415 1.2206-.13663 1.84s.32792.7833.64672 1.3389m37.01756 9.3908c.9837-.8927 1.6396-2.2681 1.1841-3.4796-.337-.8835-1.1568-1.4938-1.8855-2.0858-.4645-.3735-.9564-.7378-1.3298-1.2024-.1822-.2277-.3462-.4918-.4008-.7742-.0547-.3006.0729-.5192.1548-.8016.1549-.5101-.1002-1.0657-.4827-1.4574-.3826-.3916-.8745-.674-1.3299-.9837-.8744-.6012-1.6487-1.4209-1.8582-2.4138-.1548-.7196-.0455-2.35 1.2935-3.0878"/><path d="m39.771 23.3845c.9837-.8926 1.6396-2.268 1.1841-3.4795-.337-.8835-1.1568-1.4938-1.8855-2.0859-.4645-.3734-.9564-.7378-1.3298-1.2023-.1822-.2277-.3462-.4919-.4008-.7743-.0547-.3005.0729-.5191.1548-.8015.1549-.5101-.1002-1.0657-.4827-1.4574-.3826-.3917-.8745-.674-1.3299-.9837-.8744-.6012-1.6487-1.421-1.8582-2.4138-.1093-.53743-.0819-1.38454.5101-2.1861m5.4379 25.8776c.9837-.8927 1.6396-2.2681 1.1841-3.4795-.337-.8836-1.1568-1.4938-1.8855-2.0859-.4645-.3735-.9564-.7378-1.3298-1.2023-.1822-.2278-.3462-.4919-.4008-.7743-.0547-.3006.0729-.5192.1548-.8015.1549-.5101-.1002-1.0658-.4827-1.4574-.3826-.3917-.8745-.6741-1.3299-.9838-.8744-.6011-1.6487-1.4209-1.8582-2.4138-.1548-.7195-.0455-2.35 1.2935-3.0878"/><path d="m41.1009 36.0002c-.2004-1.2205-1.676-2.177-2.0404-2.4502-.4736-.3644-.9564-.7378-1.3298-1.2024-.1822-.2277-.3462-.4918-.4008-.7742-.0547-.3006.0729-.5192.1548-.8016.1549-.51-.1002-1.0657-.4827-1.4573-.3826-.3917-.8745-.6741-1.3299-.9838-.8744-.6011-1.6487-1.4209-1.8582-2.4138-.1548-.7195-.0455-2.35 1.2935-3.0878"/><path d="m37.4938 35.9999c.1549-.5101-.1002-1.0657-.4827-1.4574-.3826-.3917-.8745-.6741-1.3299-.9837-.8744-.6012-1.6487-1.421-1.8582-2.4138-.1548-.7196-.0455-2.3501 1.2935-3.0879m4.6545-10.1104c.9837-.8927 1.6396-2.2681 1.1841-3.4796-.6558-1.7488-3.9531-2.7963-3.9531-4.96417m3.9349-1.50293c.5738 1.29343.2459 3.7619-.8107 4.7547m-5.5653 20.1393c-.5466.8927-.8836 2.0495-.8836 2.8693m-11.9688-20.3395c.7014.7834 2.0404 2.4229 1.6123 3.6708"/><path d="m20.0143 13.7022c-2.514 1.9857-1.1294 3.7072.3006 5.3286l1.3936 1.43s.3826-.4281 1.1842-1.0475c.6194-.4736 1.2661-.9655 1.9128-1.4027.8471-.5829 1.3663-1.5211 1.4938-2.514.0911-.7833-.0638-1.8764-.9837-2.687m-3.6071 7.6421c.7014.7833 2.0404 2.4229 1.6123 3.6707"/><path d="m20.0143 18.7208c-2.514 1.9857-1.1294 3.7072.3006 5.3285l1.3936 1.4301s.3826-.4281 1.1842-1.0475c.6194-.4737 1.2661-.9655 1.9128-1.4027.8471-.583 1.3663-1.5212 1.4938-2.514.0911-.7834-.0638-1.8764-.9837-2.6871m-5.3013-9.8281c.3553.39167 2.9148 2.2954 3.3884 4.19.1822.7378.1367 1.257-.0819 1.8855"/><path d="m20.0143 8c-2.514 1.98569-1.1294 4.3813.3006 6.0026l1.3936 1.4301s.3826-.4281 1.1842-1.0475c.6194-.4737 1.2661-.9656 1.9128-1.4028.3006-.2095.5647-.4645.7833-.7469.3917-.5101.6285-1.1294.7105-1.7671.0911-.7833-.0638-1.66684-.9837-2.4684m-3.6071 17.4702c.7014.7834 2.0404 2.4229 1.6123 3.6708"/><path d="m20.0143 23.7491c-2.514 1.9857-1.1294 3.7072.3006 5.3286l1.3936 1.43s.3826-.4281 1.1842-1.0475c.6194-.4736 1.2661-.9655 1.9128-1.4027.8471-.583 1.3663-1.5212 1.4938-2.514.0911-.7833-.0638-1.8764-.9837-2.6871m-3.6071 7.6421c.7014.7834 2.0404 2.4229 1.6123 3.6708"/><path d="m20.0143 28.7676c-2.514 1.9857-1.1294 3.7073.3006 5.3286l1.1477 1.175c.1366.1367.3461.1458.4919.0091.1913-.1821.5009-.4645.9382-.8015.6194-.4737 1.2661-.9655 1.9128-1.4028.8471-.5829 1.3663-1.5211 1.4938-2.5139.0911-.7834-.0638-1.8764-.9837-2.6871m.9837 7.7154c.0273-.1913.0273-.4099.0182-.6376-.0455-.6741-.3097-1.4392-1.0019-2.0495m-5.3013.8833c-.5647.4463-1.1477.9838-1.3936 1.9675m-7.8152-27.7541s.5738.6285.2824 1.98569c-.1276.59201-.2733.74691-.6285 1.25701m-3.88033 1.4758c.34612-.9108.76512-3.21533.33702-4.09887"/></g></svg>
